<svg width="216" height="273" viewBox="0 0 216 273" fill="none" xmlns="http://www.w3.org/2000/svg">
<path d="M187 273H29C12.9837 273 0 260.016 0 244V29C0 12.9837 12.9837 0 29 0H134L216 81V244C216 260.016 203.016 273 187 273Z" fill="white"/>
<path fill-rule="evenodd" clip-rule="evenodd" d="M139 18.9952V52C139 65.2548 149.745 76 163 76H196.709L139 18.9952ZM134 0L216 81V244C216 260.016 203.016 273 187 273H29C12.9837 273 0 260.016 0 244V29C0 12.9837 12.9837 0 29 0H134ZM129 10H29C18.5066 10 10 18.5066 10 29V244C10 254.493 18.5066 263 29 263H187C197.493 263 206 254.493 206 244V86H163C144.222 86 129 70.7777 129 52V10Z" fill="#609249"/>
<path fill-rule="evenodd" clip-rule="evenodd" d="M86.4081 181.152V128.471L148.585 113.974V157.27C144.208 154.739 138.162 153.895 131.962 155.391C121.228 157.981 114.101 166.607 116.044 174.657C117.986 182.708 128.263 187.135 138.997 184.544C149.501 182.01 156.55 173.696 155.028 165.797V94L79.9649 109.786V172.047C75.5801 169.468 69.4863 168.598 63.2375 170.106C52.5034 172.696 45.3765 181.322 47.3191 189.373C49.2618 197.424 59.5384 201.85 70.2725 199.26C80.4929 196.794 87.4431 188.855 86.4081 181.152Z" fill="#CAF5B6"/>
</svg>
