<svg width="217" height="273" viewBox="0 0 217 273" fill="none" xmlns="http://www.w3.org/2000/svg">
<path d="M187.597 273H29.5974C13.5812 273 0.597412 260.016 0.597412 244V29C0.597412 12.9837 13.5812 0 29.5974 0H134.597L216.597 81V244C216.597 260.016 203.614 273 187.597 273Z" fill="white"/>
<path fill-rule="evenodd" clip-rule="evenodd" d="M139.597 18.9952V52C139.597 65.2548 150.343 76 163.597 76H197.306L139.597 18.9952ZM134.597 0L216.597 81V244C216.597 260.016 203.614 273 187.597 273H29.5974C13.5812 273 0.597412 260.016 0.597412 244V29C0.597412 12.9837 13.5812 0 29.5974 0H134.597ZM129.597 10H29.5974C19.104 10 10.5974 18.5066 10.5974 29V244C10.5974 254.493 19.104 263 29.5974 263H187.597C198.091 263 206.597 254.493 206.597 244V86H163.597C144.82 86 129.597 70.7777 129.597 52V10Z" fill="#68696A"/>
<path d="M145.329 120.285C143.342 110.499 137.793 101.798 129.757 95.8701C121.721 89.9421 111.77 87.2085 101.833 88.1988C91.8964 89.1891 82.6808 93.8335 75.9728 101.231C69.2647 108.629 65.5417 118.253 65.5252 128.239C65.5252 129.152 65.5252 130.066 65.5252 131.087C59.1114 131.429 53.0962 134.306 48.8029 139.083C44.5096 143.86 42.2897 150.146 42.6318 156.56C42.9739 162.974 45.8498 168.988 50.6269 173.282C55.404 177.575 61.6908 179.795 68.1046 179.453H143.341C151.18 179.703 158.797 176.827 164.516 171.461C170.236 166.094 173.589 158.676 173.839 150.837C174.088 142.998 171.213 135.38 165.846 129.661C160.48 123.942 153.061 120.589 145.222 120.339L145.329 120.285Z" fill="#C0C0C0"/>
<path d="M131.188 138.598L109.473 113.59C109.297 113.404 109.084 113.256 108.847 113.154C108.611 113.053 108.355 113 108.097 113C107.839 113 107.584 113.053 107.348 113.154C107.111 113.256 106.898 113.404 106.722 113.59L85.0068 138.598C84.7912 138.862 84.6545 139.18 84.6118 139.516C84.5691 139.852 84.622 140.194 84.7649 140.502C84.9077 140.81 85.1348 141.072 85.4205 141.26C85.7062 141.447 86.0391 141.553 86.3821 141.564H91.8109V161.214C91.8109 161.687 92.0015 162.142 92.3408 162.477C92.6802 162.812 93.1406 163 93.6205 163H122.574C123.054 163 123.515 162.812 123.854 162.477C124.193 162.142 124.384 161.687 124.384 161.214V141.564H129.813C130.156 141.553 130.489 141.447 130.774 141.26C131.06 141.072 131.287 140.81 131.43 140.502C131.573 140.194 131.626 139.852 131.583 139.516C131.54 139.18 131.404 138.862 131.188 138.598Z" fill="white"/>
</svg>
