<svg width="216" height="273" viewBox="0 0 216 273" fill="none" xmlns="http://www.w3.org/2000/svg">
<path d="M187 273H29C12.9837 273 0 260.016 0 244V29C0 12.9837 12.9837 0 29 0H134L216 81V244C216 260.016 203.016 273 187 273Z" fill="white"/>
<path fill-rule="evenodd" clip-rule="evenodd" d="M139 18.9952V52C139 65.2548 149.745 76 163 76H196.709L139 18.9952ZM134 0L216 81V244C216 260.016 203.016 273 187 273H29C12.9837 273 0 260.016 0 244V29C0 12.9837 12.9837 0 29 0H134ZM129 10H29C18.5066 10 10 18.5066 10 29V244C10 254.493 18.5066 263 29 263H187C197.493 263 206 254.493 206 244V86H163C144.222 86 129 70.7777 129 52V10Z" fill="#E4B716"/>
<path fill-rule="evenodd" clip-rule="evenodd" d="M35 144C35 140.686 37.6863 138 41 138H175C178.314 138 181 140.686 181 144C181 147.314 178.314 150 175 150H41C37.6863 150 35 147.314 35 144Z" fill="#FCE699"/>
<path fill-rule="evenodd" clip-rule="evenodd" d="M35 180C35 176.686 37.6863 174 41 174H175C178.314 174 181 176.686 181 180C181 183.314 178.314 186 175 186H41C37.6863 186 35 183.314 35 180Z" fill="#FCE699"/>
<path fill-rule="evenodd" clip-rule="evenodd" d="M35 216C35 212.686 37.6863 210 41 210H175C178.314 210 181 212.686 181 216C181 219.314 178.314 222 175 222H41C37.6863 222 35 219.314 35 216Z" fill="#FCE699"/>
<path fill-rule="evenodd" clip-rule="evenodd" d="M35 108C35 104.686 37.6863 102 41 102H117C120.314 102 123 104.686 123 108C123 111.314 120.314 114 117 114H41C37.6863 114 35 111.314 35 108Z" fill="#FCE699"/>
</svg>
