<svg width="216" height="273" viewBox="0 0 216 273" fill="none" xmlns="http://www.w3.org/2000/svg">
<path d="M187 273H29C12.9837 273 0 260.016 0 244V29C0 12.9837 12.9837 0 29 0H134L216 81V244C216 260.016 203.016 273 187 273Z" fill="white"/>
<path fill-rule="evenodd" clip-rule="evenodd" d="M139 18.9952V52C139 65.2548 149.745 76 163 76H196.709L139 18.9952ZM134 0L216 81V244C216 260.016 203.016 273 187 273H29C12.9837 273 0 260.016 0 244V29C0 12.9837 12.9837 0 29 0H134ZM129 10H29C18.5066 10 10 18.5066 10 29V244C10 254.493 18.5066 263 29 263H187C197.493 263 206 254.493 206 244V86H163C144.222 86 129 70.7777 129 52V10Z" fill="#68696A"/>
</svg>
